<svg width="198" height="60" viewBox="0 0 198 60" fill="none" xmlns="http://www.w3.org/2000/svg">
<path d="M59.9235 27.9649C58.7991 11.4331 44.4904 -1.05304 27.9638 0.071329C19.7287 0.630945 12.4999 4.46611 7.45304 10.2112L7.43764 10.2009C7.4017 10.2471 7.3709 10.2933 7.34009 10.3395C2.32922 16.1205 -0.4894 23.8011 0.0702158 32.0362C0.121557 32.8217 0.21397 33.5918 0.326921 34.3568C0.326921 34.3927 0.337189 34.4236 0.342323 34.4595C0.419334 34.9626 0.506614 35.4658 0.604162 35.9586C0.604162 35.9689 0.604162 35.9792 0.609296 35.9843C0.701709 36.431 0.799257 36.8777 0.912207 37.3192C4.37772 51.135 17.3208 60.9206 32.0351 59.9195C48.5617 58.7951 61.053 44.4864 59.9286 27.9546L59.9235 27.9649ZM53.3929 28.4115C53.5315 30.4446 53.4032 32.4367 53.0387 34.3568C53.0387 34.3465 53.0284 34.3363 53.0284 34.326C50.8515 29.0122 46.5492 25.1719 42.7705 23.0515C43.5355 14.0463 40.4807 10.2471 37.0203 9.63101C36.9279 9.61048 36.8303 9.59507 36.7379 9.58481C33.9912 9.23055 31.4806 11.1712 31.1315 13.918C30.7772 16.6647 32.7179 19.1753 35.4647 19.5244C35.706 19.5552 35.9421 19.5655 36.1732 19.5604C36.1886 19.8633 36.1988 20.1867 36.1988 20.5256C33.0003 19.7349 30.0123 19.5758 27.2861 19.8222C26.2644 19.8889 25.2478 20.0173 24.2313 20.2072C24.5701 17.1679 25.715 13.7486 27.9278 11.2534C30.0687 8.83523 33.2519 7.45416 36.7225 7.80841C37.3797 7.87515 38.0831 8.03944 38.7145 8.24994C38.7453 8.26021 38.7762 8.27048 38.8018 8.27561C46.8418 11.5512 52.7614 19.1856 53.3878 28.4115H53.3929ZM32.4818 32.9911C32.4818 32.9911 32.4818 32.9963 32.4766 33.0014C31.763 34.0334 30.9107 35.0499 29.9096 36.0357C28.4104 34.4441 27.209 32.7242 26.2952 30.9478C26.249 30.8502 26.1976 30.7629 26.1514 30.6654C26.1514 30.6654 26.1514 30.6603 26.1514 30.6551C25.6175 29.5205 25.1605 28.2729 24.8063 26.9124C26.9369 26.4092 29.0265 26.2244 31.0237 26.322C31.1315 26.3271 31.2342 26.3322 31.342 26.3374H31.3523C32.605 26.44 33.909 26.6711 35.2593 27.0407C34.6278 29.1354 33.7447 31.0402 32.6614 32.719C32.605 32.8063 32.5485 32.8936 32.4869 32.986L32.4818 32.9911ZM22.2341 7.87002C22.2341 7.87002 22.2238 7.88542 22.2187 7.89055C18.7018 12.4291 17.5313 18.0715 17.5826 22.4046C9.39887 26.2449 7.643 30.7886 8.83411 34.095C8.86492 34.1874 8.90086 34.2747 8.9368 34.3619C10.0047 36.9136 12.9414 38.1201 15.493 37.0522C18.0447 35.9843 19.2512 33.0476 18.1833 30.496C18.0909 30.2752 17.9779 30.0647 17.8599 29.8645C18.1166 29.6951 18.3938 29.5256 18.6916 29.3511C19.6054 32.5188 20.9557 35.1937 22.5319 37.4321C23.1018 38.2793 23.7179 39.0956 24.3904 39.8811C21.5872 41.1081 18.0549 41.8269 14.7845 41.1595C11.6219 40.5126 8.83412 38.4487 7.4017 35.2655C7.1296 34.6597 6.9191 33.9718 6.78561 33.3197C6.70347 32.7498 6.63672 32.1748 6.59565 31.5895C5.86661 20.8439 12.5307 11.2791 22.2341 7.87002ZM31.5884 53.394C25.2067 53.8304 19.2409 51.6536 14.7332 47.7825C20.4218 48.5577 25.8947 46.7505 29.6221 44.5377C37.0408 49.7078 41.8566 48.9582 44.1259 46.273C44.1875 46.2012 44.2491 46.1242 44.3056 46.0471C45.9844 43.8446 45.5583 40.7026 43.3558 39.0237C41.1532 37.3449 38.0112 37.771 36.3323 39.9735C36.1886 40.1635 36.0602 40.3688 35.9473 40.5742C35.6752 40.4356 35.3877 40.2816 35.095 40.1121C37.3848 37.735 39.0123 35.2245 40.1624 32.7396C40.6142 31.8206 41.0095 30.8759 41.3535 29.9004C43.8178 31.7179 46.2103 34.4133 47.2679 37.581C48.2896 40.6409 47.8994 44.0911 45.8561 46.9199C45.471 47.4539 44.9781 47.9827 44.4801 48.4242C44.475 48.4294 44.4647 48.4396 44.4596 48.4448C40.8863 51.2531 36.4607 53.0603 31.5936 53.3889L31.5884 53.394Z" fill="url(#paint0_linear_432_356)"/>
<path style="mix-blend-mode:overlay" opacity="0.9" d="M37.0208 9.62578C36.9284 9.60524 36.8308 9.58984 36.7384 9.57957C36.2507 9.51796 35.7732 9.52823 35.3163 9.60524C38.1862 11.166 40.2758 15.5146 39.1771 24.0988C38.8126 26.9431 37.9655 29.6436 36.7487 32.1285C35.7578 34.2643 34.4127 36.4155 32.6055 38.4845C33.4731 39.1366 34.3203 39.6808 35.0955 40.1223C37.3853 37.7452 39.0128 35.2346 40.1629 32.7497C41.3848 30.27 42.2268 27.5643 42.5913 24.72C43.9005 14.5032 40.6865 10.2829 37.0208 9.63091V9.62578Z" fill="url(#paint1_radial_432_356)"/>
<g style="mix-blend-mode:overlay" opacity="0.8">
<path d="M39.1758 24.0936C40.2745 15.5146 38.1849 11.1609 35.3149 9.6001C35.202 9.6155 35.0942 9.64117 34.9812 9.66684C37.7896 11.2841 39.8124 15.6275 38.7291 24.0936C38.3646 26.9379 37.5175 29.6385 36.3007 32.1234C35.3457 34.1873 34.052 36.2666 32.332 38.274C32.4244 38.3459 32.5117 38.4126 32.6041 38.4794C34.4113 36.4103 35.7565 34.254 36.7474 32.1234C37.9693 29.6436 38.8113 26.9379 39.1758 24.0936Z" fill="white"/>
</g>
<path style="mix-blend-mode:overlay" opacity="0.5" d="M28.2659 43.557C27.9938 43.3517 27.7371 43.136 27.4753 42.9204C23.2397 44.6865 17.3714 45.7955 11.5391 44.4401C12.494 45.6569 13.5568 46.7812 14.7273 47.7824C20.4159 48.5576 25.8889 46.7504 29.6162 44.5377C29.1747 44.2296 28.7229 43.901 28.2608 43.5519L28.2659 43.557Z" fill="url(#paint2_radial_432_356)"/>
<path style="mix-blend-mode:overlay" opacity="0.6" d="M27.4808 42.9206C27.3524 42.8128 27.2189 42.705 27.0957 42.5972C22.8293 44.3017 16.9302 45.3234 11.1133 43.8704C11.257 44.0604 11.4008 44.2555 11.5445 44.4403C17.3717 45.7957 23.2451 44.6867 27.4808 42.9206Z" fill="url(#paint3_linear_432_356)"/>
<path style="mix-blend-mode:overlay" opacity="0.9" d="M8.83894 34.1003C8.86975 34.1927 8.90568 34.28 8.94162 34.3673C9.13159 34.8191 9.37802 35.2247 9.6758 35.5892C9.59365 32.3239 12.3147 28.3347 20.2931 24.9975C22.9372 23.8937 25.6993 23.2725 28.4614 23.0877C30.8026 22.8772 33.344 22.9644 36.0394 23.4984C36.1677 22.4202 36.2191 21.414 36.2088 20.5258C33.0103 19.73 30.0171 19.5759 27.2909 19.8224C24.5339 20.0072 21.7666 20.6284 19.1225 21.7323C9.61932 25.7061 7.57082 30.5988 8.83894 34.1054V34.1003Z" fill="url(#paint4_radial_432_356)"/>
<g style="mix-blend-mode:overlay" opacity="0.8">
<path d="M20.2929 25.0026C12.3145 28.3398 9.59348 32.3289 9.67563 35.5942C9.7475 35.6815 9.82451 35.7637 9.90153 35.8458C9.89639 32.6062 12.6483 28.6837 20.5188 25.3877C23.1629 24.2838 25.925 23.6626 28.6872 23.4778C30.9513 23.2724 33.4003 23.3546 35.9981 23.8372C36.0135 23.7242 36.0289 23.6113 36.0392 23.4983C33.3438 22.9695 30.8024 22.8771 28.4613 23.0876C25.7043 23.2724 22.937 23.8936 20.2929 24.9975V25.0026Z" fill="white"/>
</g>
<path style="mix-blend-mode:overlay" opacity="0.4" d="M42.6013 24.7152C42.5602 25.0541 42.5037 25.3826 42.4473 25.7164C46.0925 28.499 49.9892 33.0324 51.7348 38.757C52.3099 37.3194 52.7514 35.8357 53.0338 34.3211C50.862 29.0073 46.5597 25.1721 42.781 23.0518C42.7348 23.5908 42.6783 24.1402 42.6064 24.7152H42.6013Z" fill="url(#paint5_radial_432_356)"/>
<path style="mix-blend-mode:overlay" opacity="0.5" d="M42.4467 25.7163C42.4158 25.8806 42.3902 26.05 42.3594 26.2143C45.9686 29.0586 49.8038 33.6536 51.4519 39.4192C51.5494 39.1984 51.6418 38.9777 51.7291 38.7569C49.9835 33.0324 46.0919 28.5041 42.4415 25.7163H42.4467Z" fill="url(#paint6_linear_432_356)"/>
<path style="mix-blend-mode:overlay" opacity="0.9" d="M44.1255 46.2681C44.1871 46.1962 44.2487 46.1192 44.3052 46.0422C44.603 45.652 44.8289 45.231 44.9983 44.7997C42.2105 46.5042 37.3998 46.1397 30.515 40.8978C28.2355 39.1625 26.3153 37.078 24.7751 34.778C23.4197 32.8527 22.2286 30.6142 21.3404 28.0112C20.3444 28.4374 19.4459 28.8994 18.6758 29.3512C19.5896 32.519 20.9502 35.1887 22.5264 37.4272C24.0666 39.7272 25.9867 41.8065 28.2663 43.547C36.4603 49.7901 41.7227 49.1175 44.1203 46.2681H44.1255Z" fill="url(#paint7_radial_432_356)"/>
<g style="mix-blend-mode:overlay" opacity="0.8">
<path d="M30.5191 40.8977C37.3988 46.1397 42.2146 46.5042 45.0024 44.7997C45.0435 44.6918 45.0794 44.584 45.1102 44.4813C42.307 46.1088 37.5323 45.6827 30.745 40.5127C28.4655 38.7774 26.5453 36.6929 25.0051 34.3928C23.6959 32.5343 22.5407 30.3728 21.6628 27.8828C21.555 27.929 21.4523 27.9701 21.3496 28.0163C22.2378 30.6193 23.4289 32.8577 24.7843 34.783C26.3245 37.0831 28.2447 39.1624 30.5242 40.9029L30.5191 40.8977Z" fill="white"/>
</g>
<path style="mix-blend-mode:overlay" opacity="0.3" d="M19.1168 21.7217C19.43 21.5933 19.7431 21.4753 20.0615 21.3572C20.6467 16.8084 22.6234 11.166 26.7101 6.79688C25.1801 7.01764 23.6759 7.37703 22.2178 7.8853C18.7009 12.4238 17.5303 18.0662 17.5817 22.3994C18.0694 22.1684 18.5777 21.9425 19.1116 21.7217H19.1168Z" fill="url(#paint8_radial_432_356)"/>
<path style="mix-blend-mode:overlay" opacity="0.4" d="M20.0605 21.3573C20.2197 21.3008 20.3737 21.2392 20.5329 21.1827C21.19 16.6339 23.254 11.0172 27.4177 6.70459C27.1815 6.73026 26.9454 6.76106 26.7092 6.79187C22.6225 11.1661 20.6458 16.8034 20.0605 21.3522V21.3573Z" fill="url(#paint9_linear_432_356)"/>
<path style="mix-blend-mode:multiply" opacity="0.4" d="M27.9635 0.0712111C19.7284 0.630827 12.4996 4.466 7.45279 10.211C7.41686 10.2521 7.37578 10.2983 7.33984 10.3394C8.32046 11.3149 11.5344 13.235 12.8333 14.0359C15.3901 11.2892 18.5989 9.14316 22.239 7.8699C22.4906 7.54132 22.7575 7.21787 23.0348 6.90469C26.4233 3.07979 31.0491 1.06209 36.4194 1.06209C37.0149 1.06209 38.2317 1.15964 38.2574 1.15964C35.0023 0.225234 31.5368 -0.175225 27.9635 0.0712111Z" fill="url(#paint10_linear_432_356)"/>
<path style="mix-blend-mode:multiply" opacity="0.4" d="M31.5883 53.3988C25.2066 53.8352 19.2408 51.6584 14.7331 47.7873C14.3121 47.7308 13.8911 47.664 13.4701 47.5768C8.46436 46.5551 4.39816 43.5568 1.71816 38.9104C1.42038 38.3919 1.15341 37.8682 0.912109 37.3291C4.37762 51.1449 17.3207 60.9305 32.0299 59.9294C32.0966 58.4148 31.6499 54.898 31.5832 53.3988H31.5883Z" fill="url(#paint11_linear_432_356)"/>
<path style="mix-blend-mode:multiply" opacity="0.4" d="M59.924 27.9648C58.9998 27.8724 54.5023 28.2267 53.3934 28.4115C53.532 30.4446 53.4037 32.4366 53.0391 34.3568C53.1932 34.7367 53.342 35.1269 53.4755 35.5222C55.0928 40.3688 54.528 45.3848 51.848 50.0363C51.5554 50.5446 51.2371 51.0323 50.9033 51.4995C50.8982 51.5098 50.8879 51.52 50.8828 51.5252C50.8828 51.5252 50.8982 51.5149 50.9033 51.5046C56.9975 45.5748 60.5452 37.1138 59.924 27.9699V27.9648Z" fill="url(#paint12_linear_432_356)"/>
<path style="mix-blend-mode:multiply" opacity="0.5" d="M36.7279 7.80319C37.3851 7.86994 38.0884 8.03423 38.7199 8.24472C38.7507 8.25499 38.7815 8.26526 38.8072 8.2704C41.3948 9.32288 43.7616 10.8323 45.805 12.696C45.805 12.696 45.8152 12.7011 45.8204 12.7063C46.8061 11.5819 48.7006 10.3446 48.7006 10.3446C48.7006 10.3446 45.7998 7.37706 41.3588 6.45293C38.2527 5.80603 31.2447 5.1848 26.8242 12.7063C26.8242 12.7063 26.8396 12.6908 26.8653 12.6652C27.1939 12.1723 27.5379 11.6897 27.9332 11.2482C30.0741 8.83001 33.2572 7.44894 36.7279 7.80319Z" fill="url(#paint13_linear_432_356)"/>
<path style="mix-blend-mode:multiply" opacity="0.5" d="M45.856 46.9248C45.4709 47.4587 44.978 47.9875 44.48 48.4291C44.4595 48.4496 44.4338 48.4701 44.4133 48.4907C42.2056 50.2055 39.7156 51.4992 37.0818 52.3361C37.0767 52.3361 37.0715 52.3361 37.0664 52.3412C37.549 53.7582 37.6722 56.0173 37.6722 56.0173C37.6722 56.0173 41.6922 54.9904 44.7111 51.6071C46.8212 49.2402 50.8669 43.4798 46.5645 35.8916C46.5645 35.8916 46.5696 35.9173 46.5799 35.9481C46.8469 36.4769 47.0882 37.0211 47.273 37.5807C48.2947 40.6406 47.9045 44.0907 45.8611 46.9196L45.856 46.9248Z" fill="url(#paint14_linear_432_356)"/>
<path style="mix-blend-mode:multiply" opacity="0.5" d="M7.41256 35.2757C7.14045 34.6699 6.92995 33.9819 6.79647 33.3299C6.79133 33.2991 6.78106 33.2683 6.77593 33.2375C6.39601 30.4702 6.51923 27.667 7.10965 24.9664C7.10965 24.9613 7.10965 24.9562 7.10965 24.951C5.6413 24.6635 3.6236 23.6367 3.6236 23.6367C3.6236 23.6367 2.50436 27.6362 3.92651 31.9385C4.92252 34.9523 7.88489 41.3339 16.6077 41.4007C16.6077 41.4007 16.5821 41.3956 16.5512 41.3853C15.9608 41.3493 15.3704 41.2877 14.7902 41.1697C11.6276 40.5228 8.83984 38.4588 7.40742 35.2757H7.41256Z" fill="url(#paint15_linear_432_356)"/>
<path style="mix-blend-mode:multiply" opacity="0.6" d="M35.4647 19.5191C35.706 19.5499 35.9422 19.5601 36.1732 19.555C36.1732 19.555 36.0141 16.4386 35.6342 14.8368C35.2491 13.2401 34.6844 12.1773 34.0683 11.5766C33.6216 11.1453 32.22 10.6114 31.1316 13.9075C30.7773 16.6542 32.718 19.1648 35.4647 19.5139V19.5191Z" fill="url(#paint16_linear_432_356)"/>
<path style="mix-blend-mode:multiply" opacity="0.5" d="M18.1892 30.506C18.0968 30.2852 17.9839 30.0747 17.8658 29.8745C17.8658 29.8745 15.2423 31.5688 14.0512 32.6983C12.86 33.8278 12.2234 34.8495 12.0129 35.6863C11.864 36.287 12.1002 37.7656 15.499 37.0622C18.0506 35.9944 19.2571 33.0576 18.1892 30.506Z" fill="url(#paint17_linear_432_356)"/>
<path style="mix-blend-mode:multiply" opacity="0.6" d="M36.3382 39.9683C36.1944 40.1583 36.0661 40.3637 35.9531 40.569C35.9531 40.569 38.7307 41.9912 40.3068 42.4584C41.883 42.9256 43.0844 42.9667 43.911 42.7305C44.5065 42.5611 45.6668 41.6113 43.3616 39.0237C41.1591 37.3448 38.017 37.771 36.3382 39.9735V39.9683Z" fill="url(#paint18_linear_432_356)"/>
<path style="mix-blend-mode:multiply" opacity="0.3" d="M35.2606 27.0459C34.6291 29.1406 33.746 31.0454 32.6628 32.7242C32.6063 32.8115 32.5498 32.8988 32.4882 32.9912C32.4882 32.9912 32.4882 32.9963 32.4831 33.0014C31.7694 34.0334 30.9172 35.05 29.916 36.0357C30.604 36.7647 31.3433 37.4732 32.1596 38.1458C33.1864 38.9519 34.1876 39.6039 35.0963 40.1173C37.3861 37.7402 39.0136 35.2296 40.1637 32.7447C40.6155 31.8257 41.0108 30.8811 41.3548 29.9056C40.2972 29.1303 39.2293 28.5091 38.2435 28.0881C37.227 27.6517 36.2309 27.3129 35.2555 27.0459H35.2606Z" fill="url(#paint19_linear_432_356)"/>
<path style="mix-blend-mode:multiply" opacity="0.3" d="M14.734 47.7874C20.4225 48.5627 25.8955 46.7555 29.6228 44.5427C29.1813 44.2347 28.7295 43.9061 28.2674 43.557C26.8299 42.4583 25.5361 41.2261 24.3861 39.8861C21.5828 41.1131 18.0506 41.8319 14.7802 41.1645C11.6176 40.5176 8.82975 38.4537 7.39734 35.2705C7.12523 34.6647 6.91474 33.9767 6.78125 33.3247C7.60784 39.1262 10.5343 44.1884 14.7288 47.7874H14.734Z" fill="url(#paint20_linear_432_356)"/>
<path style="mix-blend-mode:multiply" opacity="0.3" d="M29.9153 36.0359C28.4161 34.4443 27.2147 32.7244 26.3009 30.948C26.2547 30.8504 26.2033 30.7632 26.1571 30.6656C26.1571 30.6656 26.1571 30.6605 26.1571 30.6554C25.6232 29.5207 25.1662 28.2731 24.812 26.9126C23.8365 27.1436 22.8559 27.4311 21.8701 27.8008C20.6585 28.2834 19.5957 28.8276 18.6973 29.3513C19.6111 32.519 20.9614 35.1939 22.5376 37.4324C23.1075 38.2795 23.7235 39.0958 24.3961 39.8813C25.5975 39.3576 26.6705 38.7364 27.5279 38.0947C28.411 37.4324 29.2016 36.7393 29.9204 36.0308L29.9153 36.0359Z" fill="url(#paint21_linear_432_356)"/>
<path style="mix-blend-mode:multiply" opacity="0.3" d="M22.2197 7.89056C18.7029 12.4291 17.5323 18.0715 17.5836 22.4046C18.0714 22.1736 18.5848 21.9477 19.1187 21.7218C20.7873 21.0236 22.5021 20.5204 24.2323 20.197C24.5711 17.1576 25.716 13.7383 27.9288 11.2431C30.0698 8.82497 33.2529 7.44389 36.7235 7.79815C37.3807 7.86489 38.0841 8.02918 38.7156 8.23968C38.7464 8.24995 38.7772 8.26022 38.8028 8.26535C35.6043 6.96129 32.0721 6.3452 28.4012 6.59677C26.2449 6.74566 24.1809 7.18206 22.23 7.87002C22.2249 7.87516 22.2197 7.88543 22.2146 7.89056H22.2197Z" fill="url(#paint22_linear_432_356)"/>
<path style="mix-blend-mode:multiply" opacity="0.3" d="M53.0343 34.316C50.8575 29.0022 46.5551 25.1619 42.7764 23.0415C42.7302 23.5806 42.6737 24.1351 42.5967 24.7152C42.3657 26.507 41.9447 28.2423 41.3594 29.9058C43.8237 31.7233 46.2162 34.4187 47.2739 37.5864C48.2955 40.6463 47.9053 44.0964 45.862 46.9253C45.4769 47.4593 44.984 47.9881 44.486 48.4296C44.4809 48.4347 44.4706 48.445 44.4655 48.4501C48.8706 44.9898 51.9869 39.9994 53.0548 34.3519C53.0548 34.3416 53.0446 34.3314 53.0446 34.3211L53.0343 34.316Z" fill="url(#paint23_linear_432_356)"/>
<path style="mix-blend-mode:multiply" opacity="0.3" d="M24.2163 23.8112C24.3498 24.9099 24.55 25.9367 24.8067 26.9122C26.9373 26.409 29.0269 26.2242 31.0241 26.3218C31.1319 26.3269 31.2346 26.332 31.3424 26.3372H31.3527C32.6054 26.4398 33.9094 26.6709 35.2597 27.0405C35.5472 26.0805 35.7885 25.0844 35.9631 24.0474C36.153 22.7536 36.2095 21.5573 36.2044 20.5151C33.0058 19.7245 30.0178 19.5653 27.2916 19.8117C26.2699 19.8785 25.2534 20.0068 24.2368 20.1968C24.0931 21.5009 24.0879 22.7382 24.2214 23.8061L24.2163 23.8112Z" fill="url(#paint24_linear_432_356)"/>
<path d="M150.427 22.2812L146.566 33.0269H146.597L150.448 22.3429L150.427 22.2812Z" fill="white"/>
<path d="M81.8921 22.2812L78.0312 33.0269H78.0467L81.9075 22.3172L81.8921 22.2812Z" fill="white"/>
<path d="M82.8567 24.9661L85.7523 33.0266H79.9456L78.4824 37.0928H87.2309L89.7107 43.9879H95.2606L85.1465 18.6152L82.8567 24.9661Z" fill="white"/>
<path d="M78.0315 33.027L81.8924 22.2814L81.9078 22.3173L83.5353 17.7993H79.274L68.8672 43.9883H74.0937L78.047 33.027H78.0315Z" fill="white"/>
<path d="M112.077 30.4957C110.814 29.7513 109.135 29.053 107.045 28.4113C105.849 28.0211 104.914 27.6617 104.237 27.328C103.559 26.9943 103.087 26.6143 102.825 26.1933C102.563 25.7672 102.43 25.2692 102.43 24.6942C102.43 23.6828 102.82 22.9024 103.6 22.353C104.381 21.8037 105.474 21.5264 106.876 21.5264C108.026 21.5264 109.222 21.701 110.475 22.045C111.727 22.389 112.836 22.8613 113.802 23.4569L114.526 19.2212C113.54 18.6257 112.338 18.1482 110.927 17.7888C109.515 17.4346 108.108 17.2549 106.706 17.2549C104.802 17.2549 103.143 17.5629 101.747 18.1842C100.345 18.8054 99.2618 19.6884 98.4917 20.8385C97.7216 21.9885 97.3366 23.3439 97.3366 24.9047C97.3366 26.2395 97.5933 27.3896 98.1118 28.3651C98.6304 29.3405 99.4723 30.1877 100.643 30.8962C101.813 31.6098 103.354 32.2516 105.258 32.8266C106.634 33.2425 107.702 33.6326 108.462 33.9972C109.222 34.3617 109.751 34.7724 110.049 35.2191C110.346 35.6657 110.495 36.1997 110.495 36.8209C110.495 37.8991 110.054 38.7462 109.171 39.352C108.288 39.9578 107.061 40.2659 105.5 40.2659C104.144 40.2659 102.727 40.0554 101.244 39.6293C99.7599 39.2031 98.4712 38.6589 97.3674 37.9915L96.8848 42.3657C97.5265 42.8021 98.3326 43.1821 99.2978 43.5004C100.263 43.8238 101.3 44.0754 102.414 44.2602C103.528 44.445 104.637 44.5375 105.741 44.5375C108.842 44.5375 111.276 43.829 113.047 42.4171C114.813 41.0052 115.701 39.0491 115.701 36.5437C115.701 35.2139 115.414 34.0588 114.839 33.0833C114.264 32.1078 113.345 31.2453 112.082 30.5008L112.077 30.4957Z" fill="white"/>
<path d="M139.57 17.7993H117.416V22.0709H139.57V17.7993Z" fill="white"/>
<path d="M131.128 23.8574H125.855V43.9831H131.128V23.8574Z" fill="white"/>
<path d="M146.567 33.027L150.428 22.2814L150.448 22.343L152.086 17.7993H147.804L137.402 43.9883H142.639L145.119 37.0932H145.129L146.598 33.027H146.567Z" fill="white"/>
<path d="M151.397 24.9866L154.283 33.0266H148.496L147.033 37.0928H155.766L158.246 43.9879H163.796L153.687 18.6357L151.397 24.9866Z" fill="white"/>
<path d="M180.846 33.3761C182.109 32.6625 183.141 31.7076 183.947 30.5011C184.753 29.2945 185.154 27.8878 185.154 26.2808C185.154 24.5352 184.764 23.0309 183.983 21.768C183.203 20.505 182.089 19.5295 180.641 18.8415C179.193 18.1536 177.473 17.8096 175.471 17.8096H173.638V21.7731H174.778C178.269 21.7731 180.014 23.2671 180.014 26.25C180.014 29.2329 178.212 30.727 174.603 30.727H173.633V34.6905H176.323L181.837 43.9935H187.731L180.841 33.3813L180.846 33.3761Z" fill="white"/>
<path d="M171.857 17.7993H166.861V43.9832H171.857V17.7993Z" fill="white"/>
<defs>
<linearGradient id="paint0_linear_432_356" x1="9.52722" y1="50.4727" x2="47.7762" y2="12.2186" gradientUnits="userSpaceOnUse">
<stop stop-color="#E6007A"/>
<stop offset="0.21" stop-color="#703AC2"/>
<stop offset="0.46" stop-color="#0070EB"/>
<stop offset="0.77" stop-color="#0297FB"/>
<stop offset="1" stop-color="#0AE2FF"/>
</linearGradient>
<radialGradient id="paint1_radial_432_356" cx="0" cy="0" r="1" gradientUnits="userSpaceOnUse" gradientTransform="translate(38.5508 23.9242) scale(11.408)">
<stop stop-color="white"/>
<stop offset="1" stop-color="white" stop-opacity="0"/>
</radialGradient>
<radialGradient id="paint2_radial_432_356" cx="0" cy="0" r="1" gradientUnits="userSpaceOnUse" gradientTransform="translate(21.6892 45.087) scale(6.63838 6.63839)">
<stop stop-color="white"/>
<stop offset="1" stop-color="white" stop-opacity="0"/>
</radialGradient>
<linearGradient id="paint3_linear_432_356" x1="11.7294" y1="43.9628" x2="18.1265" y2="43.8756" gradientUnits="userSpaceOnUse">
<stop stop-color="white" stop-opacity="0"/>
<stop offset="1" stop-color="white"/>
</linearGradient>
<radialGradient id="paint4_radial_432_356" cx="0" cy="0" r="1" gradientUnits="userSpaceOnUse" gradientTransform="translate(20.4652 25.6286) rotate(-120) scale(11.408)">
<stop stop-color="white"/>
<stop offset="1" stop-color="white" stop-opacity="0"/>
</radialGradient>
<radialGradient id="paint5_radial_432_356" cx="0" cy="0" r="1" gradientUnits="userSpaceOnUse" gradientTransform="translate(47.2234 29.6488) rotate(-120) scale(6.63838 6.63838)">
<stop stop-color="white"/>
<stop offset="1" stop-color="white" stop-opacity="0"/>
</radialGradient>
<linearGradient id="paint6_linear_432_356" x1="51.2266" y1="38.8322" x2="47.9524" y2="33.3358" gradientUnits="userSpaceOnUse">
<stop stop-color="white" stop-opacity="0"/>
<stop offset="1" stop-color="white"/>
</linearGradient>
<radialGradient id="paint7_radial_432_356" cx="0" cy="0" r="1" gradientUnits="userSpaceOnUse" gradientTransform="translate(30.44 39.911) rotate(120) scale(11.408)">
<stop stop-color="white"/>
<stop offset="1" stop-color="white" stop-opacity="0"/>
</radialGradient>
<radialGradient id="paint8_radial_432_356" cx="0" cy="0" r="1" gradientUnits="userSpaceOnUse" gradientTransform="translate(21.083 15.2594) rotate(120) scale(6.63838)">
<stop stop-color="white"/>
<stop offset="1" stop-color="white" stop-opacity="0"/>
</radialGradient>
<linearGradient id="paint9_linear_432_356" x1="27.0315" y1="7.19342" x2="23.913" y2="12.7797" gradientUnits="userSpaceOnUse">
<stop stop-color="white" stop-opacity="0"/>
<stop offset="1" stop-color="white"/>
</linearGradient>
<linearGradient id="paint10_linear_432_356" x1="28.4256" y1="4.35305" x2="18.6503" y2="7.19733" gradientUnits="userSpaceOnUse">
<stop stop-color="#231F20"/>
<stop offset="1" stop-color="white"/>
</linearGradient>
<linearGradient id="paint11_linear_432_356" x1="9.95838" y1="41.6263" x2="18.1319" y2="50.1592" gradientUnits="userSpaceOnUse">
<stop stop-color="#231F20"/>
<stop offset="1" stop-color="white"/>
</linearGradient>
<linearGradient id="paint12_linear_432_356" x1="53.8246" y1="40.3431" x2="56.6689" y2="31.6973" gradientUnits="userSpaceOnUse">
<stop stop-color="#231F20"/>
<stop offset="1" stop-color="white"/>
</linearGradient>
<linearGradient id="paint13_linear_432_356" x1="32.8773" y1="9.30235" x2="45.9795" y2="12.3007" gradientUnits="userSpaceOnUse">
<stop stop-color="#231F20"/>
<stop offset="1" stop-color="white"/>
</linearGradient>
<linearGradient id="paint14_linear_432_356" x1="46.4857" y1="42.8397" x2="37.331" y2="52.6893" gradientUnits="userSpaceOnUse">
<stop stop-color="#231F20"/>
<stop offset="1" stop-color="white"/>
</linearGradient>
<linearGradient id="paint15_linear_432_356" x1="10.6326" y1="37.861" x2="6.68258" y2="25.0124" gradientUnits="userSpaceOnUse">
<stop stop-color="#231F20"/>
<stop offset="1" stop-color="white"/>
</linearGradient>
<linearGradient id="paint16_linear_432_356" x1="35.742" y1="14.1334" x2="31.5988" y2="18.2817" gradientUnits="userSpaceOnUse">
<stop stop-color="#231F20"/>
<stop offset="1" stop-color="white"/>
</linearGradient>
<linearGradient id="paint17_linear_432_356" x1="13.3889" y1="32.9512" x2="19.0512" y2="34.4722" gradientUnits="userSpaceOnUse">
<stop stop-color="#231F20"/>
<stop offset="1" stop-color="white"/>
</linearGradient>
<linearGradient id="paint18_linear_432_356" x1="40.8607" y1="42.9031" x2="39.3442" y2="37.2433" gradientUnits="userSpaceOnUse">
<stop stop-color="#231F20"/>
<stop offset="1" stop-color="white"/>
</linearGradient>
<linearGradient id="paint19_linear_432_356" x1="32.2418" y1="37.8686" x2="34.7318" y2="34.4339" gradientUnits="userSpaceOnUse">
<stop stop-color="#231F20"/>
<stop offset="1" stop-color="white"/>
</linearGradient>
<linearGradient id="paint20_linear_432_356" x1="23.6776" y1="36.3795" x2="18.7026" y2="38.7514" gradientUnits="userSpaceOnUse">
<stop stop-color="#231F20"/>
<stop offset="1" stop-color="white"/>
</linearGradient>
<linearGradient id="paint21_linear_432_356" x1="21.8701" y1="28.0986" x2="23.4104" y2="31.2971" gradientUnits="userSpaceOnUse">
<stop stop-color="#231F20"/>
<stop offset="1" stop-color="white"/>
</linearGradient>
<linearGradient id="paint22_linear_432_356" x1="29.0327" y1="18.2204" x2="27.9699" y2="14.5495" gradientUnits="userSpaceOnUse">
<stop stop-color="#231F20"/>
<stop offset="1" stop-color="white"/>
</linearGradient>
<linearGradient id="paint23_linear_432_356" x1="40.5225" y1="35.0347" x2="43.603" y2="35.7433" gradientUnits="userSpaceOnUse">
<stop stop-color="#231F20"/>
<stop offset="1" stop-color="white"/>
</linearGradient>
<linearGradient id="paint24_linear_432_356" x1="35.691" y1="24.6275" x2="31.7839" y2="23.919" gradientUnits="userSpaceOnUse">
<stop stop-color="#231F20"/>
<stop offset="1" stop-color="white"/>
</linearGradient>
</defs>
</svg>
